<svg width="51" height="38" viewBox="0 0 51 38" fill="none" xmlns="http://www.w3.org/2000/svg">
<path d="M49.1809 26.0144H47.9449V18.1219C47.9449 17.1947 47.551 16.3039 46.8557 15.6468L39.1384 8.35299C38.4431 7.69589 37.5007 7.32353 36.5196 7.32353H33.1128V3.81899C33.1128 1.88419 31.4519 0.314453 29.4048 0.314453H9.62863C7.58149 0.314453 5.9206 1.88419 5.9206 3.81899V7.32353H1.59457C1.25466 7.32353 0.976562 7.58637 0.976562 7.90762V9.0758C0.976562 9.39705 1.25466 9.65989 1.59457 9.65989H22.6067C22.9466 9.65989 23.2247 9.92273 23.2247 10.244V11.4122C23.2247 11.7334 22.9466 11.9963 22.6067 11.9963H4.06659C3.72668 11.9963 3.44858 12.2591 3.44858 12.5803V13.7485C3.44858 14.0698 3.72668 14.3326 4.06659 14.3326H20.1347C20.4746 14.3326 20.7527 14.5955 20.7527 14.9167V16.0849C20.7527 16.4061 20.4746 16.669 20.1347 16.669H1.59457C1.25466 16.669 0.976562 16.9318 0.976562 17.2531V18.4212C0.976562 18.7425 1.25466 19.0053 1.59457 19.0053H17.6627C18.0026 19.0053 18.2807 19.2682 18.2807 19.5894V20.7576C18.2807 21.0789 18.0026 21.3417 17.6627 21.3417H5.9206V30.6871C5.9206 34.5567 9.24238 37.6962 13.3367 37.6962C17.4309 37.6962 20.7527 34.5567 20.7527 30.6871H30.6408C30.6408 34.5567 33.9626 37.6962 38.0569 37.6962C42.1511 37.6962 45.4729 34.5567 45.4729 30.6871H49.1809C49.8607 30.6871 50.417 30.1614 50.417 29.519V27.1826C50.417 26.5401 49.8607 26.0144 49.1809 26.0144ZM13.3367 34.1917C11.2895 34.1917 9.62863 32.6219 9.62863 30.6871C9.62863 28.7523 11.2895 27.1826 13.3367 27.1826C15.3838 27.1826 17.0447 28.7523 17.0447 30.6871C17.0447 32.6219 15.3838 34.1917 13.3367 34.1917ZM38.0569 34.1917C36.0097 34.1917 34.3488 32.6219 34.3488 30.6871C34.3488 28.7523 36.0097 27.1826 38.0569 27.1826C40.104 27.1826 41.7649 28.7523 41.7649 30.6871C41.7649 32.6219 40.104 34.1917 38.0569 34.1917ZM44.2369 19.0053H33.1128V10.8281H36.5196L44.2369 18.1219V19.0053Z" fill="white"/>
</svg>
