<svg width="21" height="21" viewBox="0 0 21 21" fill="none" xmlns="http://www.w3.org/2000/svg">
<g filter="url(#filter0_i_469_63)">
<circle cx="10.5" cy="10.5" r="10.5" fill="white"/>
</g>
<path d="M13.0595 6.00273C12.2082 6.00234 11.3865 6.3143 10.7507 6.87923C10.6196 6.99627 10.4498 7.06098 10.2739 7.06098C10.0979 7.06098 9.92819 6.99627 9.79706 6.87923C9.29533 6.43358 8.67514 6.14226 8.01126 6.04038C7.34737 5.93849 6.66812 6.0304 6.0554 6.30502C5.44267 6.57965 4.92262 7.02526 4.55792 7.58814C4.19323 8.15103 3.99947 8.80716 4 9.47745C4 12.4513 8.57993 15.9323 9.90999 16.8839C10.0162 16.9594 10.1434 17 10.2739 17C10.4043 17 10.5315 16.9594 10.6378 16.8839C11.9678 15.9323 16.5477 12.4513 16.5477 9.47745C16.5461 8.55532 16.1778 7.67153 15.5238 7.02007C14.8698 6.36861 13.9835 6.00273 13.0595 6.00273ZM10.2739 15.5942C7.72041 13.716 5.25478 11.1553 5.25478 9.47745C5.25648 9.04961 5.38154 8.63129 5.61504 8.27246C5.84854 7.91363 6.1806 7.62944 6.57156 7.45384C6.96253 7.27824 7.39589 7.21864 7.81988 7.28217C8.24387 7.3457 8.64058 7.52966 8.96263 7.81209C9.32292 8.13459 9.78987 8.31296 10.2739 8.31296C10.7579 8.31296 11.2248 8.13459 11.5851 7.81209C11.9072 7.52966 12.3039 7.3457 12.7279 7.28217C13.1519 7.21864 13.5852 7.27824 13.9762 7.45384C14.3671 7.62944 14.6992 7.91363 14.9327 8.27246C15.1662 8.63129 15.2913 9.04961 15.293 9.47745C15.293 11.1553 12.8273 13.7035 10.2739 15.5942Z" fill="#2DA55F"/>
<defs>
<filter id="filter0_i_469_63" x="0" y="0" width="21" height="21" filterUnits="userSpaceOnUse" color-interpolation-filters="sRGB">
<feFlood flood-opacity="0" result="BackgroundImageFix"/>
<feBlend mode="normal" in="SourceGraphic" in2="BackgroundImageFix" result="shape"/>
<feColorMatrix in="SourceAlpha" type="matrix" values="0 0 0 0 0 0 0 0 0 0 0 0 0 0 0 0 0 0 127 0" result="hardAlpha"/>
<feOffset/>
<feGaussianBlur stdDeviation="2"/>
<feComposite in2="hardAlpha" operator="arithmetic" k2="-1" k3="1"/>
<feColorMatrix type="matrix" values="0 0 0 0 0 0 0 0 0 0 0 0 0 0 0 0 0 0 0.1 0"/>
<feBlend mode="normal" in2="shape" result="effect1_innerShadow_469_63"/>
</filter>
</defs>
</svg>
