<svg width="40" height="20" viewBox="0 0 40 20" fill="none" xmlns="http://www.w3.org/2000/svg">
<rect width="40" height="20" rx="5" fill="#FFCD1B"/>
<path d="M9.394 13V10.507L9.655 11.227L6.919 6.7H8.17L10.366 10.345H9.664L11.878 6.7H13.03L10.294 11.227L10.564 10.507V13H9.394ZM16.0603 13V12.028L15.9973 11.821V10.12C15.9973 9.79 15.8983 9.535 15.7003 9.355C15.5023 9.169 15.2023 9.076 14.8003 9.076C14.5303 9.076 14.2633 9.118 13.9993 9.202C13.7413 9.286 13.5223 9.403 13.3423 9.553L12.9013 8.734C13.1593 8.536 13.4653 8.389 13.8193 8.293C14.1793 8.191 14.5513 8.14 14.9353 8.14C15.6313 8.14 16.1683 8.308 16.5463 8.644C16.9303 8.974 17.1223 9.487 17.1223 10.183V13H16.0603ZM14.5483 13.063C14.1883 13.063 13.8733 13.003 13.6033 12.883C13.3333 12.757 13.1233 12.586 12.9733 12.37C12.8293 12.148 12.7573 11.899 12.7573 11.623C12.7573 11.353 12.8203 11.11 12.9463 10.894C13.0783 10.678 13.2913 10.507 13.5853 10.381C13.8793 10.255 14.2693 10.192 14.7553 10.192H16.1503V10.939H14.8363C14.4523 10.939 14.1943 11.002 14.0623 11.128C13.9303 11.248 13.8643 11.398 13.8643 11.578C13.8643 11.782 13.9453 11.944 14.1073 12.064C14.2693 12.184 14.4943 12.244 14.7823 12.244C15.0583 12.244 15.3043 12.181 15.5203 12.055C15.7423 11.929 15.9013 11.743 15.9973 11.497L16.1863 12.172C16.0783 12.454 15.8833 12.673 15.6013 12.829C15.3253 12.985 14.9743 13.063 14.5483 13.063ZM21.2931 8.14C21.6771 8.14 22.0191 8.215 22.3191 8.365C22.6251 8.515 22.8651 8.746 23.0391 9.058C23.2131 9.364 23.3001 9.76 23.3001 10.246V13H22.1751V10.39C22.1751 9.964 22.0731 9.646 21.8691 9.436C21.6711 9.226 21.3921 9.121 21.0321 9.121C20.7681 9.121 20.5341 9.175 20.3301 9.283C20.1261 9.391 19.9671 9.553 19.8531 9.769C19.7451 9.979 19.6911 10.246 19.6911 10.57V13H18.5661V8.194H19.6371V9.49L19.4481 9.094C19.6161 8.788 19.8591 8.554 20.1771 8.392C20.5011 8.224 20.8731 8.14 21.2931 8.14ZM26.914 14.809C26.47 14.809 26.035 14.749 25.609 14.629C25.189 14.515 24.844 14.347 24.574 14.125L25.078 13.279C25.288 13.453 25.552 13.591 25.87 13.693C26.194 13.801 26.521 13.855 26.851 13.855C27.379 13.855 27.766 13.732 28.012 13.486C28.258 13.246 28.381 12.883 28.381 12.397V11.542L28.471 10.453L28.435 9.364V8.194H29.506V12.271C29.506 13.141 29.284 13.78 28.84 14.188C28.396 14.602 27.754 14.809 26.914 14.809ZM26.77 12.784C26.314 12.784 25.9 12.688 25.528 12.496C25.162 12.298 24.871 12.025 24.655 11.677C24.445 11.329 24.34 10.921 24.34 10.453C24.34 9.991 24.445 9.586 24.655 9.238C24.871 8.89 25.162 8.62 25.528 8.428C25.9 8.236 26.314 8.14 26.77 8.14C27.178 8.14 27.544 8.221 27.868 8.383C28.192 8.545 28.45 8.797 28.642 9.139C28.84 9.481 28.939 9.919 28.939 10.453C28.939 10.987 28.84 11.428 28.642 11.776C28.45 12.118 28.192 12.373 27.868 12.541C27.544 12.703 27.178 12.784 26.77 12.784ZM26.941 11.83C27.223 11.83 27.475 11.773 27.697 11.659C27.919 11.539 28.09 11.377 28.21 11.173C28.336 10.963 28.399 10.723 28.399 10.453C28.399 10.183 28.336 9.946 28.21 9.742C28.09 9.532 27.919 9.373 27.697 9.265C27.475 9.151 27.223 9.094 26.941 9.094C26.659 9.094 26.404 9.151 26.176 9.265C25.954 9.373 25.78 9.532 25.654 9.742C25.534 9.946 25.474 10.183 25.474 10.453C25.474 10.723 25.534 10.963 25.654 11.173C25.78 11.377 25.954 11.539 26.176 11.659C26.404 11.773 26.659 11.83 26.941 11.83ZM30.9851 13V8.194H32.1101V13H30.9851ZM31.5521 7.402C31.3421 7.402 31.1681 7.336 31.0301 7.204C30.8981 7.072 30.8321 6.913 30.8321 6.727C30.8321 6.535 30.8981 6.376 31.0301 6.25C31.1681 6.118 31.3421 6.052 31.5521 6.052C31.7621 6.052 31.9331 6.115 32.0651 6.241C32.2031 6.361 32.2721 6.514 32.2721 6.7C32.2721 6.898 32.2061 7.066 32.0741 7.204C31.9421 7.336 31.7681 7.402 31.5521 7.402Z" fill="white"/>
</svg>
