<svg width="40" height="39" viewBox="0 0 40 39" fill="none" xmlns="http://www.w3.org/2000/svg">
<path d="M20.128 0.914062C9.53561 0.914062 0.917969 9.29879 0.917969 19.6049V27.3486C0.917969 29.2625 2.64111 30.8195 4.75998 30.8195H6.68099C7.19047 30.8195 7.67909 30.6225 8.03935 30.272C8.39961 29.9215 8.602 29.4461 8.602 28.9504V19.3377C8.602 18.8419 8.39961 18.3665 8.03935 18.016C7.67909 17.6655 7.19047 17.4686 6.68099 17.4686H4.93672C6.0048 10.2352 12.4017 4.65224 20.128 4.65224C27.8543 4.65224 34.2513 10.2352 35.3194 17.4686H33.5751C33.0656 17.4686 32.577 17.6655 32.2167 18.016C31.8565 18.3665 31.6541 18.8419 31.6541 19.3377V30.8195C31.6541 32.8811 29.9309 34.5576 27.8121 34.5576H23.9701V32.6886H16.286V38.2958H27.8121C32.0498 38.2958 35.4961 34.9427 35.4961 30.8195C37.615 30.8195 39.3381 29.2625 39.3381 27.3486V19.6049C39.3381 9.29879 30.7205 0.914062 20.128 0.914062Z" fill="white"/>
</svg>
