<svg width="34" height="20" viewBox="0 0 34 20" fill="none" xmlns="http://www.w3.org/2000/svg">
<rect width="34" height="20" rx="5" fill="#2FA8DB"/>
<path d="M7.495 10.966V10.03H9.97V10.966H7.495ZM11.6911 13V7.15L12.2041 7.681H10.3591V6.7H12.8611V13H11.6911ZM14.0298 13V12.217L16.5318 9.841C16.7418 9.643 16.8978 9.469 16.9998 9.319C17.1018 9.169 17.1678 9.031 17.1978 8.905C17.2338 8.773 17.2518 8.65 17.2518 8.536C17.2518 8.248 17.1528 8.026 16.9548 7.87C16.7568 7.708 16.4658 7.627 16.0818 7.627C15.7758 7.627 15.4968 7.681 15.2448 7.789C14.9988 7.897 14.7858 8.062 14.6058 8.284L13.7868 7.654C14.0328 7.324 14.3628 7.069 14.7768 6.889C15.1968 6.703 15.6648 6.61 16.1808 6.61C16.6368 6.61 17.0328 6.685 17.3688 6.835C17.7108 6.979 17.9718 7.186 18.1518 7.456C18.3378 7.726 18.4308 8.047 18.4308 8.419C18.4308 8.623 18.4038 8.827 18.3498 9.031C18.2958 9.229 18.1938 9.439 18.0438 9.661C17.8938 9.883 17.6748 10.132 17.3868 10.408L15.2358 12.451L14.9928 12.01H18.6738V13H14.0298ZM20.319 13L24.621 6.7H25.503L21.201 13H20.319ZM20.841 10.093C20.547 10.093 20.286 10.021 20.058 9.877C19.83 9.733 19.653 9.532 19.527 9.274C19.401 9.016 19.338 8.713 19.338 8.365C19.338 8.017 19.401 7.714 19.527 7.456C19.653 7.198 19.83 6.997 20.058 6.853C20.286 6.709 20.547 6.637 20.841 6.637C21.147 6.637 21.411 6.709 21.633 6.853C21.861 6.997 22.038 7.198 22.164 7.456C22.29 7.714 22.353 8.017 22.353 8.365C22.353 8.713 22.29 9.016 22.164 9.274C22.038 9.532 21.861 9.733 21.633 9.877C21.411 10.021 21.147 10.093 20.841 10.093ZM20.85 9.463C21.09 9.463 21.276 9.37 21.408 9.184C21.546 8.992 21.615 8.719 21.615 8.365C21.615 8.011 21.546 7.741 21.408 7.555C21.276 7.363 21.09 7.267 20.85 7.267C20.61 7.267 20.418 7.363 20.274 7.555C20.136 7.747 20.067 8.017 20.067 8.365C20.067 8.713 20.136 8.983 20.274 9.175C20.418 9.367 20.61 9.463 20.85 9.463ZM24.972 13.063C24.678 13.063 24.417 12.991 24.189 12.847C23.961 12.703 23.784 12.502 23.658 12.244C23.532 11.986 23.469 11.683 23.469 11.335C23.469 10.987 23.532 10.684 23.658 10.426C23.784 10.168 23.961 9.967 24.189 9.823C24.417 9.679 24.678 9.607 24.972 9.607C25.278 9.607 25.542 9.679 25.764 9.823C25.992 9.967 26.169 10.168 26.295 10.426C26.421 10.684 26.484 10.987 26.484 11.335C26.484 11.683 26.421 11.986 26.295 12.244C26.169 12.502 25.992 12.703 25.764 12.847C25.542 12.991 25.278 13.063 24.972 13.063ZM24.972 12.433C25.212 12.433 25.401 12.337 25.539 12.145C25.677 11.953 25.746 11.683 25.746 11.335C25.746 10.987 25.677 10.717 25.539 10.525C25.401 10.333 25.212 10.237 24.972 10.237C24.738 10.237 24.549 10.333 24.405 10.525C24.267 10.711 24.198 10.981 24.198 11.335C24.198 11.689 24.267 11.962 24.405 12.154C24.549 12.34 24.738 12.433 24.972 12.433Z" fill="white"/>
</svg>
