<svg width="21" height="21" viewBox="0 0 21 21" fill="none" xmlns="http://www.w3.org/2000/svg">
<circle cx="10.5" cy="10.5" r="10.5" fill="#2DA55F"/>
<path d="M11.1111 7.31579C11.1111 7.16224 11.1755 7.01499 11.2901 6.90641C11.4047 6.79784 11.5601 6.73684 11.7222 6.73684H14.2644L13.5128 5.91474C13.4614 5.86717 13.4211 5.81004 13.3942 5.74695C13.3673 5.68386 13.3546 5.61617 13.3567 5.54817C13.3589 5.48017 13.3759 5.41333 13.4067 5.35187C13.4375 5.29041 13.4814 5.23567 13.5356 5.1911C13.5899 5.14653 13.6533 5.1131 13.7219 5.09292C13.7904 5.07274 13.8627 5.06625 13.9341 5.07387C14.0054 5.08148 14.0743 5.10303 14.1365 5.13715C14.1986 5.17127 14.2526 5.21722 14.295 5.27211L15.8717 7.00895C15.8861 7.02691 15.8984 7.04632 15.9083 7.06684C15.9282 7.09383 15.9447 7.12299 15.9572 7.15368C15.96 7.18257 15.96 7.21164 15.9572 7.24053C15.9735 7.30132 15.9735 7.365 15.9572 7.42579C15.96 7.45468 15.96 7.48374 15.9572 7.51263C15.9447 7.54333 15.9282 7.57249 15.9083 7.59947C15.8984 7.61999 15.8861 7.63941 15.8717 7.65737L14.295 9.39421C14.2526 9.4491 14.1986 9.49505 14.1365 9.52917C14.0743 9.56329 14.0054 9.58484 13.9341 9.59245C13.8627 9.60006 13.7904 9.59357 13.7219 9.5734C13.6533 9.55322 13.5899 9.51979 13.5356 9.47522C13.4814 9.43065 13.4375 9.3759 13.4067 9.31444C13.3759 9.25298 13.3589 9.18614 13.3567 9.11814C13.3546 9.05014 13.3673 8.98246 13.3942 8.91937C13.4211 8.85627 13.4614 8.79914 13.5128 8.75158L14.2644 7.89474H11.7222C11.5601 7.89474 11.4047 7.83374 11.2901 7.72517C11.1755 7.61659 11.1111 7.46934 11.1111 7.31579ZM9.88889 6.44737V8.18421C9.88889 8.56808 9.72793 8.93622 9.44141 9.20765C9.1549 9.47909 8.7663 9.63158 8.36111 9.63158H6.52778C6.12259 9.63158 5.73399 9.47909 5.44748 9.20765C5.16096 8.93622 5 8.56808 5 8.18421V6.44737C5 6.0635 5.16096 5.69536 5.44748 5.42392C5.73399 5.15249 6.12259 5 6.52778 5H8.36111C8.7663 5 9.1549 5.15249 9.44141 5.42392C9.72793 5.69536 9.88889 6.0635 9.88889 6.44737ZM8.66667 6.44737C8.66667 6.3706 8.63447 6.29697 8.57717 6.24268C8.51987 6.18839 8.44215 6.15789 8.36111 6.15789H6.52778C6.44674 6.15789 6.36902 6.18839 6.31172 6.24268C6.25441 6.29697 6.22222 6.3706 6.22222 6.44737V8.18421C6.22222 8.26098 6.25441 8.33461 6.31172 8.3889C6.36902 8.44319 6.44674 8.47368 6.52778 8.47368H8.36111C8.44215 8.47368 8.51987 8.44319 8.57717 8.3889C8.63447 8.33461 8.66667 8.26098 8.66667 8.18421V6.44737ZM9.27778 13.1053H6.73556L7.48722 12.2832C7.53857 12.2356 7.57894 12.1785 7.6058 12.1154C7.63266 12.0523 7.64542 11.9846 7.64328 11.9166C7.64113 11.8486 7.62413 11.7818 7.59333 11.7203C7.56254 11.6588 7.51863 11.6041 7.46438 11.5595C7.41013 11.5149 7.34671 11.4815 7.27813 11.4613C7.20955 11.4412 7.1373 11.4347 7.06594 11.4423C6.99458 11.4499 6.92567 11.4714 6.86354 11.5056C6.80141 11.5397 6.74743 11.5856 6.705 11.6405L5.12833 13.3774C5.1139 13.3953 5.1016 13.4147 5.09167 13.4353C5.07176 13.4623 5.05534 13.4914 5.04278 13.5221C5.04001 13.551 5.04001 13.5801 5.04278 13.6089C5.02648 13.6697 5.02648 13.7334 5.04278 13.7942C5.04001 13.8231 5.04001 13.8522 5.04278 13.8811C5.05534 13.9118 5.07176 13.9409 5.09167 13.9679C5.1016 13.9884 5.1139 14.0078 5.12833 14.0258L6.705 15.7626C6.74743 15.8175 6.80141 15.8635 6.86354 15.8976C6.92567 15.9317 6.99458 15.9533 7.06594 15.9609C7.1373 15.9685 7.20955 15.962 7.27813 15.9418C7.34671 15.9216 7.41013 15.8882 7.46438 15.8436C7.51863 15.7991 7.56254 15.7443 7.59333 15.6829C7.62413 15.6214 7.64113 15.5546 7.64328 15.4866C7.64542 15.4186 7.63266 15.3509 7.6058 15.2878C7.57894 15.2247 7.53857 15.1676 7.48722 15.12L6.73556 14.2632H9.27778C9.43985 14.2632 9.59529 14.2022 9.7099 14.0936C9.8245 13.985 9.88889 13.8378 9.88889 13.6842C9.88889 13.5307 9.8245 13.3834 9.7099 13.2748C9.59529 13.1663 9.43985 13.1053 9.27778 13.1053ZM16 12.8158V14.5526C16 14.9365 15.839 15.3046 15.5525 15.5761C15.266 15.8475 14.8774 16 14.4722 16H12.6389C12.2337 16 11.8451 15.8475 11.5586 15.5761C11.2721 15.3046 11.1111 14.9365 11.1111 14.5526V12.8158C11.1111 12.4319 11.2721 12.0638 11.5586 11.7923C11.8451 11.5209 12.2337 11.3684 12.6389 11.3684H14.4722C14.8774 11.3684 15.266 11.5209 15.5525 11.7923C15.839 12.0638 16 12.4319 16 12.8158ZM14.7778 12.8158C14.7778 12.739 14.7456 12.6654 14.6883 12.6111C14.631 12.5568 14.5533 12.5263 14.4722 12.5263H12.6389C12.5579 12.5263 12.4801 12.5568 12.4228 12.6111C12.3655 12.6654 12.3333 12.739 12.3333 12.8158V14.5526C12.3333 14.6294 12.3655 14.703 12.4228 14.7573C12.4801 14.8116 12.5579 14.8421 12.6389 14.8421H14.4722C14.5533 14.8421 14.631 14.8116 14.6883 14.7573C14.7456 14.703 14.7778 14.6294 14.7778 14.5526V12.8158Z" fill="white"/>
</svg>
